<?xml version="1.0" encoding="utf-8"?>
<!-- Generator: Adobe Illustrator 16.0.3, SVG Export Plug-In . SVG Version: 6.00 Build 0)  -->
<!DOCTYPE svg PUBLIC "-//W3C//DTD SVG 1.1//EN" "http://www.w3.org/Graphics/SVG/1.1/DTD/svg11.dtd">
<svg version="1.1" id="Layer_1" xmlns="http://www.w3.org/2000/svg" xmlns:xlink="http://www.w3.org/1999/xlink" x="0px" y="0px"
	 width="20.24px" height="20px" viewBox="-4.991 6.008 20.24 20" enable-background="new -4.991 6.008 20.24 20"
	 xml:space="preserve">
<g id="c192_off">
	<path fill="#FFFFFF" d="M8.629,6.4v2.699c2.458,1.268,4.142,3.83,4.142,6.787c0,4.222-3.422,7.642-7.642,7.642
		s-7.644-3.42-7.644-7.642c0-2.712,1.419-5.089,3.55-6.446V6.634c-3.547,1.572-6.027,5.122-6.027,9.252
		c0,5.589,4.53,10.122,10.12,10.122c5.589,0,10.12-4.533,10.12-10.122C15.249,11.529,12.489,7.828,8.629,6.4z"/>
	<path fill="#FFFFFF" d="M5.084,18.232c0.865,0,1.562-0.645,1.562-1.438V7.449c0-0.795-0.698-1.441-1.562-1.441
		c-0.863,0-1.561,0.646-1.561,1.441v9.347C3.524,17.587,4.222,18.232,5.084,18.232z"/>
</g>
<g id="Capa_1">
</g>
</svg>
