<?xml version="1.0" encoding="utf-8"?>
<!-- Generator: Adobe Illustrator 16.0.3, SVG Export Plug-In . SVG Version: 6.00 Build 0)  -->
<!DOCTYPE svg PUBLIC "-//W3C//DTD SVG 1.1//EN" "http://www.w3.org/Graphics/SVG/1.1/DTD/svg11.dtd">
<svg version="1.1" id="Layer_1" xmlns="http://www.w3.org/2000/svg" xmlns:xlink="http://www.w3.org/1999/xlink" x="0px" y="0px"
	 width="31.917px" height="17.75px" viewBox="10 16.333 31.917 17.75" enable-background="new 10 16.333 31.917 17.75"
	 xml:space="preserve">
<path fill="#FFFFFF" d="M28.85,18.76c-2.506-2.506-6.584-2.506-9.089,0s-2.505,6.583,0,9.089c2.231,2.23,5.706,2.47,8.21,0.728
	c0.053,0.25,0.173,0.487,0.366,0.682l3.649,3.647c0.53,0.53,1.39,0.53,1.919,0c0.531-0.53,0.531-1.39,0-1.92l-3.648-3.649
	c-0.192-0.192-0.431-0.314-0.681-0.365C31.319,24.466,31.08,20.992,28.85,18.76z M27.697,26.696c-1.871,1.87-4.914,1.87-6.785,0
	c-1.869-1.87-1.869-4.913,0-6.784c1.871-1.87,4.914-1.87,6.785,0C29.567,21.783,29.567,24.826,27.697,26.696z"/>
</svg>
