<?xml version="1.0" encoding="utf-8"?>
<!-- Generator: Adobe Illustrator 16.0.3, SVG Export Plug-In . SVG Version: 6.00 Build 0)  -->
<!DOCTYPE svg PUBLIC "-//W3C//DTD SVG 1.1//EN" "http://www.w3.org/Graphics/SVG/1.1/DTD/svg11.dtd">
<svg version="1.1" id="Layer_1" xmlns="http://www.w3.org/2000/svg" xmlns:xlink="http://www.w3.org/1999/xlink" x="0px" y="0px"
	 width="20.356px" height="19.948px" viewBox="15.456 27.632 20.356 19.948" enable-background="new 15.456 27.632 20.356 19.948"
	 xml:space="preserve">
<g>
	<g>
		<path fill="#FFFFFF" d="M33.021,35.074l-0.346-0.822c1.187-2.683,1.107-2.763,0.877-2.996l-1.516-1.482l-0.15-0.127H31.71
			c-0.092,0-0.368,0-2.674,1.046l-0.848-0.342c-1.097-2.719-1.209-2.719-1.53-2.719h-2.14c-0.321,0-0.445,0-1.462,2.729
			l-0.845,0.343c-1.558-0.658-2.472-0.991-2.718-0.991l-0.202,0.006l-1.631,1.6c-0.248,0.232-0.334,0.314,0.921,2.957l-0.345,0.819
			c-2.778,1.073-2.778,1.178-2.778,1.506v2.098c0,0.33,0,0.445,2.787,1.444l0.346,0.817c-1.187,2.682-1.107,2.762-0.877,2.993
			l1.517,1.483l0.151,0.129h0.176c0.091,0,0.365,0,2.673-1.047l0.847,0.344c1.097,2.719,1.209,2.718,1.531,2.718h2.14
			c0.327,0,0.443,0,1.464-2.727l0.849-0.344c1.557,0.658,2.467,0.992,2.713,0.992l0.204-0.006l1.644-1.609
			c0.234-0.236,0.316-0.317-0.933-2.948l0.344-0.819c2.781-1.075,2.781-1.188,2.781-1.51v-2.096
			C35.812,36.184,35.812,36.068,33.021,35.074z M25.634,41.096c-1.962,0-3.56-1.566-3.56-3.491c0-1.923,1.598-3.488,3.56-3.488
			c1.961,0,3.555,1.565,3.555,3.488C29.188,39.529,27.595,41.096,25.634,41.096z"/>
	</g>
</g>
</svg>
